<svg width="15" height="15" fill="none" xmlns="http://www.w3.org/2000/svg"><path d="M10.947 0H4.053A4.058 4.058 0 000 4.053v6.894A4.058 4.058 0 004.053 15h6.894A4.058 4.058 0 0015 10.947V4.053A4.058 4.058 0 0010.947 0zm2.841 10.947a2.844 2.844 0 01-2.841 2.841H4.053a2.844 2.844 0 01-2.841-2.841V4.053a2.844 2.844 0 012.841-2.841h6.894a2.844 2.844 0 012.841 2.841v6.894z" fill="#323232"/><path d="M10.857 6.977a3.34 3.34 0 00-.949-1.885 3.36 3.36 0 00-5.08.375 3.342 3.342 0 00-.625 2.497 3.342 3.342 0 001.323 2.208 3.338 3.338 0 002.497.625 3.341 3.341 0 002.208-1.323 3.341 3.341 0 00.626-2.497zM7.845 9.599a2.137 2.137 0 01-1.597-.4 2.138 2.138 0 01-.847-1.413 2.138 2.138 0 01.4-1.598 2.138 2.138 0 012.044-.846 2.14 2.14 0 011.813 1.813 2.154 2.154 0 01-1.813 2.444zM11.72 3.28a.61.61 0 00-.857 0 .61.61 0 000 .857.61.61 0 00.857 0 .61.61 0 00.178-.429.61.61 0 00-.178-.428z" fill="#323232"/></svg>